<svg width="33" height="32" viewBox="0 0 33 32" fill="none" xmlns="http://www.w3.org/2000/svg">
<path d="M27.54 2.25586C28.8841 2.25586 29.9946 3.25533 30.1768 4.54883L30.2012 4.81055L30.249 6.27539C30.4238 13.481 29.5564 18.9478 26.8037 22.8018C23.7915 27.0188 18.8438 28.8913 12.0039 29.5029C9.85103 29.6954 7.48234 29.7657 4.8877 29.7383C3.41968 29.7228 2.25586 28.5252 2.25586 27.0752V4.92285C2.25598 3.45 3.45 2.25598 4.92285 2.25586H27.54Z" stroke="black" stroke-width="3.48815"/>
<path d="M12.887 28L12.8891 19.7916C12.8893 19.2304 13.3537 18.7809 13.9149 18.7834C19.7148 18.8097 22.3673 17.6959 22.3553 10.9992C22.3544 10.4608 21.91 10.03 21.3716 10.03H11" stroke="black" stroke-width="3.77883"/>
</svg>
